<svg xmlns="http://www.w3.org/2000/svg" width="91.429" height="80" viewBox="0 0 91.429 80">
  <path id="server-solid" d="M85.714,54.857h-80A5.714,5.714,0,0,1,0,49.143V37.714A5.714,5.714,0,0,1,5.714,32h80a5.714,5.714,0,0,1,5.714,5.714V49.143A5.714,5.714,0,0,1,85.714,54.857ZM77.143,39.143a4.286,4.286,0,1,0,4.286,4.286A4.286,4.286,0,0,0,77.143,39.143Zm-11.429,0A4.286,4.286,0,1,0,70,43.429,4.286,4.286,0,0,0,65.714,39.143Zm20,44.286h-80A5.714,5.714,0,0,1,0,77.714V66.286a5.714,5.714,0,0,1,5.714-5.714h80a5.714,5.714,0,0,1,5.714,5.714V77.714A5.714,5.714,0,0,1,85.714,83.429ZM77.143,67.714A4.286,4.286,0,1,0,81.429,72,4.286,4.286,0,0,0,77.143,67.714Zm-11.429,0A4.286,4.286,0,1,0,70,72,4.286,4.286,0,0,0,65.714,67.714Zm20,44.286h-80A5.714,5.714,0,0,1,0,106.286V94.857a5.714,5.714,0,0,1,5.714-5.714h80a5.714,5.714,0,0,1,5.714,5.714v11.429A5.714,5.714,0,0,1,85.714,112ZM77.143,96.286a4.286,4.286,0,1,0,4.286,4.286A4.286,4.286,0,0,0,77.143,96.286Zm-11.429,0A4.286,4.286,0,1,0,70,100.571,4.286,4.286,0,0,0,65.714,96.286Z" transform="translate(0 -32)" fill="#4448c9"/>
</svg>
